<?xml version="1.0" encoding="UTF-8"?>
<svg version="1.1" xmlns="http://www.w3.org/2000/svg" width="1024" height="1024">
<path d="M0 0 C337.92 0 675.84 0 1024 0 C1024 337.92 1024 675.84 1024 1024 C686.08 1024 348.16 1024 0 1024 C0 686.08 0 348.16 0 0 Z " fill="#090909" transform="translate(0,0)"/>
<path d="M0 0 C1 2 1 2 0.2421875 4.59765625 C-10.95749115 32.98084186 -27.41652264 59.18093759 -45 84 C-45.55075195 84.77746582 -46.10150391 85.55493164 -46.66894531 86.35595703 C-57.10936754 101.04101987 -68.08536302 115.22309975 -79.49853516 129.16210938 C-80.84196561 130.80655563 -82.17738431 132.45753952 -83.51171875 134.109375 C-87.82722119 139.44161886 -92.2757824 144.60780839 -96.89453125 149.6796875 C-98.72917685 151.70154184 -100.52768786 153.74678522 -102.3125 155.8125 C-109.85238544 164.44688493 -117.68020937 172.77339819 -125.84155273 180.82006836 C-128.60416542 183.55707166 -131.23501541 186.34698529 -133.75 189.3125 C-136.49708394 192.53390059 -139.47249168 195.22137159 -142.69921875 197.953125 C-145.58674903 200.52199744 -148.28667958 203.24947026 -151 206 C-154.88411875 209.92753693 -158.81107624 213.71708657 -163.01953125 217.30078125 C-165.32669952 219.28030432 -167.56646782 221.3264212 -169.8125 223.375 C-174.0544085 227.19914478 -178.40551097 230.84889455 -182.84765625 234.4375 C-185.18859881 236.33020913 -187.50249212 238.25250175 -189.80859375 240.1875 C-199.48048503 248.28068162 -209.41549925 255.90172789 -219.63574219 263.28857422 C-221.95361316 264.96642175 -224.26284151 266.65554397 -226.5703125 268.34765625 C-243.09195871 280.42757586 -260.21152683 291.528297 -277.52392578 302.43603516 C-279.75995836 303.84838229 -281.98843028 305.27178079 -284.21484375 306.69921875 C-285.39290783 307.44581978 -286.57126406 308.19196016 -287.75 308.9375 C-288.73484375 309.56527344 -289.7196875 310.19304687 -290.734375 310.83984375 C-291.48203125 311.22269531 -292.2296875 311.60554688 -293 312 C-293.66 311.67 -294.32 311.34 -295 311 C-294.07058594 310.0821875 -293.14117187 309.164375 -292.18359375 308.21875 C-285.89960717 301.9908401 -279.67311465 295.79728022 -274 289 C-273.23429688 288.1234375 -272.46859375 287.246875 -271.6796875 286.34375 C-257.72001616 270.52932907 -257.72001616 270.52932907 -250.75 251.5 C-250.8325 250.675 -250.915 249.85 -251 249 C-256.91003296 245.52430556 -263.03418349 247.3711931 -269.4453125 248.73046875 C-284.57501951 252.71920969 -298.77378218 259.59409036 -313 266 C-314.31677734 266.5868457 -314.31677734 266.5868457 -315.66015625 267.18554688 C-328.1426032 272.76303818 -340.09884822 279.28332362 -352 286 C-353.08297363 286.60956543 -354.16594727 287.21913086 -355.28173828 287.84716797 C-370.05912454 296.21248487 -384.43595941 305.07484597 -398.5625 314.5 C-399.25115143 314.95872498 -399.93980286 315.41744995 -400.64932251 315.89007568 C-408.38056115 321.05350777 -415.95360775 326.34950444 -423.33178711 332.00976562 C-426.16029231 334.1195629 -429.04908597 336.06646521 -432 338 C-433.76595555 336.23404445 -433.2565267 333.83846015 -433.3125 331.4375 C-432.98846089 301.75551776 -413.51238527 274.73190935 -394 254 C-393.46375 253.41089844 -392.9275 252.82179688 -392.375 252.21484375 C-362.09814548 220.19707009 -316.18969398 201.17717446 -276.74609375 183.95703125 C-243.71877415 169.51464287 -211.12318797 154.24344309 -180 136 C-178.16029374 134.93335657 -176.32044848 133.86695286 -174.48046875 132.80078125 C-141.41322723 113.54478045 -109.8947506 91.88517845 -80 68 C-79.16855469 67.34 -78.33710937 66.68 -77.48046875 66 C-74.97946934 64.0091547 -72.48819156 62.00683445 -70 60 C-69.41492676 59.52836426 -68.82985352 59.05672852 -68.22705078 58.57080078 C-59.60010945 51.60981141 -51.04126444 44.58001695 -42.61523438 37.37695312 C-40.95165457 35.95878654 -39.28104124 34.54924683 -37.609375 33.140625 C-30.7196309 27.31285581 -24.05742164 21.29914835 -17.49829102 15.10180664 C-11.86838877 9.81000994 -6.00876019 4.85624194 0 0 Z " fill="#FCFCFC" transform="translate(616,205)"/>
<path d="M0 0 C1.00877701 -0.01283524 2.01755402 -0.02567047 3.05690002 -0.03889465 C4.65089882 -0.04997505 4.65089882 -0.04997505 6.27709961 -0.0612793 C7.40280869 -0.06935104 8.52851776 -0.07742279 9.68833923 -0.08573914 C12.06255588 -0.09950851 14.43679173 -0.11026228 16.81103516 -0.11816406 C19.21083483 -0.1296603 21.61060941 -0.15007438 24.01025391 -0.1796875 C46.56716129 -0.45736348 68.00721372 1.14126815 85.23803711 17.6340332 C92.10061708 25.83135349 94.55663715 34.41425754 94.61694336 44.80200195 C94.63756836 45.66696289 94.65819336 46.53192383 94.67944336 47.4230957 C94.74195744 57.8473182 91.97560662 64.38297972 84.75366211 71.8840332 C77.0085104 79.32495637 68.9879282 83.24417408 58.36694336 85.17700195 C63.72490889 94.90008317 69.52959724 104.30938945 75.43554688 113.70727539 C79.96318802 120.91694508 84.44047076 128.15476804 88.86694336 135.42700195 C89.41753418 136.32990967 89.968125 137.23281738 90.53540039 138.16308594 C94.56022322 144.78765431 98.47924464 151.4711588 102.36694336 158.17700195 C74.76784395 161.94281977 74.76784395 161.94281977 66.58959961 156.24047852 C61.79737256 150.78835924 58.93536389 144.2675638 56.01245117 137.68041992 C53.23661741 131.77044744 49.67991175 126.365238 46.17944336 120.86450195 C44.83817889 118.7055389 43.50086334 116.54411701 42.16772461 114.38012695 C41.52786621 113.34307617 40.88800781 112.30602539 40.22875977 111.23754883 C38.4388233 108.29516179 36.69934884 105.32856939 34.97241211 102.34887695 C34.44478271 101.45982666 33.91715332 100.57077637 33.37353516 99.65478516 C32.40111003 98.01516703 31.44906781 96.36320618 30.52246094 94.69726562 C30.08957764 93.97772705 29.65669434 93.25818848 29.21069336 92.5168457 C28.85168945 91.89156982 28.49268555 91.26629395 28.12280273 90.62207031 C25.70550283 88.37013474 25.70550283 88.37013474 18.36694336 88.17700195 C18.36694336 111.27700195 18.36694336 134.37700195 18.36694336 158.17700195 C7.47694336 158.17700195 -3.41305664 158.17700195 -14.63305664 158.17700195 C-14.63305664 106.36700195 -14.63305664 54.55700195 -14.63305664 1.17700195 C-4.49618839 0.05068326 -4.49618839 0.05068326 0 0 Z " fill="#FBFBFB" transform="translate(633.633056640625,545.822998046875)"/>
<path d="M0 0 C4.9517219 13.09293525 9.46229554 26.30285308 13.75 39.625 C14.13274582 40.81393356 14.13274582 40.81393356 14.52322388 42.02688599 C14.78118744 42.82826996 15.039151 43.62965393 15.30493164 44.45532227 C15.82952366 46.08481948 16.3541821 47.71429532 16.87890625 49.34375 C17.14002701 50.15468613 17.40114777 50.96562225 17.67018127 51.8011322 C20.29091219 59.92641894 22.97960654 68.02840777 25.6875 76.125 C25.92392212 76.83198029 26.16034424 77.53896057 26.40393066 78.2673645 C27.40754805 81.26788009 28.41138492 84.26832195 29.415802 87.26856995 C31.75120479 94.24762043 34.07333183 101.23105846 36.39453125 108.21484375 C37.54860465 111.68499399 38.70282103 115.15509664 39.85708618 118.62518311 C40.61161554 120.89443251 41.36567378 123.16383863 42.11923218 125.43341064 C43.18222995 128.63446832 44.24717327 131.83487304 45.3125 135.03515625 C45.62560623 135.9796312 45.93871246 136.92410614 46.26130676 137.89720154 C48.15175754 143.56905857 50.15025493 149.18764531 52.25463867 154.78392029 C53 157 53 157 53 159 C41.45 159 29.9 159 18 159 C16.34305423 154.07540303 14.68808556 149.15022416 13.0378418 144.22338867 C12.47742639 142.55211828 11.91592862 140.88121038 11.35327148 139.21069336 C10.53855925 136.79117906 9.72792081 134.37033014 8.91796875 131.94921875 C8.54746651 130.85319588 8.54746651 130.85319588 8.16947937 129.73503113 C6.20972354 123.85699703 4.63825337 118.00692903 3 112 C-13.83 112 -30.66 112 -48 112 C-48.66 114.97 -49.32 117.94 -50 121 C-50.43999399 122.51347285 -50.90536077 124.02040615 -51.42041016 125.51000977 C-51.68052887 126.27011856 -51.94064758 127.03022736 -52.20864868 127.81336975 C-52.61970352 128.99049782 -52.61970352 128.99049782 -53.0390625 130.19140625 C-53.32478119 131.02212143 -53.61049988 131.85283661 -53.90487671 132.70872498 C-54.80700938 135.3282554 -55.71587544 137.94538903 -56.625 140.5625 C-57.24263669 142.35205857 -57.85982833 144.14177081 -58.4765625 145.93164062 C-59.97842244 150.28986055 -61.48939119 154.64476588 -63 159 C-69.93 159 -76.86 159 -84 159 C-82.12509722 152.75032406 -80.23229037 146.64510883 -77.98046875 140.54296875 C-77.54402039 139.34848366 -77.54402039 139.34848366 -77.09875488 138.12986755 C-76.4647751 136.39540335 -75.82954983 134.66139398 -75.19320679 132.92779541 C-73.41420108 128.08045696 -71.64508275 123.22950865 -69.875 118.37890625 C-69.49172043 117.32922668 -69.10844086 116.27954712 -68.71354675 115.19805908 C-65.60190675 106.66904141 -62.5151265 98.13117595 -59.4375 89.58984375 C-59.19991785 88.93054304 -58.9623357 88.27124233 -58.71755409 87.59196281 C-56.58384789 81.67029505 -54.45133049 75.74819965 -52.32040405 69.82553101 C-47.29460804 55.85858234 -42.24753439 41.89985093 -37.14453125 27.9609375 C-36.70308273 26.75345856 -36.26163422 25.54597961 -35.80680847 24.3019104 C-32.94659002 16.50435806 -30.00418072 8.74317073 -27 1 C-23.06253625 0.83246561 -19.12502762 0.66602681 -15.1875 0.5 C-14.06794922 0.45230469 -12.94839844 0.40460937 -11.79492188 0.35546875 C-10.72177734 0.31035156 -9.64863281 0.26523437 -8.54296875 0.21875 C-7.55321045 0.17685547 -6.56345215 0.13496094 -5.54370117 0.09179688 C-3.69674974 0.02514425 -1.84815371 0 0 0 Z " fill="#FBFBFB" transform="translate(829,545)"/>
<path d="M0 0 C35.64 0 71.28 0 108 0 C106.67313961 3.98058118 105.58799282 7.04947307 103.671875 10.6328125 C103.20894043 11.50711914 102.74600586 12.38142578 102.26904297 13.28222656 C101.5171167 14.68939941 101.5171167 14.68939941 100.75 16.125 C96.00273125 25.10742025 91.39352806 34.15087279 86.875 43.25 C82.53665608 51.97888244 78.1240963 60.65697272 73.54638672 69.26269531 C70.60899809 74.79914726 67.78574219 80.38586569 65 86 C61.44492865 93.15905938 57.79506189 100.25844907 54.05322266 107.3215332 C50.11768658 114.75472502 46.24311687 122.21909093 42.375 129.6875 C42.05696411 130.30142609 41.73892822 130.91535217 41.41125488 131.54788208 C39.60670958 135.03151082 37.8029826 138.51556224 36 142 C57.83880207 142.50787912 82.76622393 143.02317041 103 134 C103.99 133.67 104.98 133.34 106 133 C106 141.25 106 149.5 106 158 C68.05 158 30.1 158 -9 158 C0.2141515 139.57169699 0.2141515 139.57169699 3.1484375 133.88671875 C3.48733505 133.22838547 3.8262326 132.57005219 4.17539978 131.89176941 C5.24082849 129.82310795 6.30778269 127.75523921 7.375 125.6875 C7.74539398 124.9691095 8.11578796 124.25071899 8.49740601 123.51055908 C13.4943835 113.81941054 18.52452413 104.14702373 23.62109375 94.5078125 C26.39210289 89.26548934 29.13366153 84.00788368 31.875 78.75 C32.3803125 77.7813501 32.885625 76.8127002 33.40625 75.81469727 C35.90920162 71.01538306 38.40865336 66.21428921 40.90234375 61.41015625 C46.57721572 50.48784047 52.32035643 39.60378427 58.125 28.75 C58.45505035 28.13178375 58.78510071 27.5135675 59.12515259 26.87661743 C60.06349041 25.11995254 61.00434958 23.36463515 61.9453125 21.609375 C62.75766357 20.0929541 62.75766357 20.0929541 63.58642578 18.54589844 C65 16 65 16 67 13 C34.66687724 12.03139116 34.66687724 12.03139116 4.83984375 23.046875 C3 24 3 24 0 24 C0 16.08 0 8.16 0 0 Z " fill="#FBFBFB" transform="translate(203,546)"/>
<path d="M0 0 C6.4166556 20.57895969 12.73421193 41.18687486 19.00305176 61.8112793 C20.15030731 65.58472088 21.29891066 69.35775226 22.44726562 73.13085938 C24.39771468 79.53956343 26.34340574 85.94969692 28.28634453 92.36068153 C29.50741946 96.38658067 30.73968358 100.40888331 31.97900391 104.42919922 C32.53419075 106.24316068 33.08936752 108.05712522 33.64453125 109.87109375 C33.89120041 110.66145523 34.13786957 111.45181671 34.39201355 112.26612854 C35.43893666 115.7048188 36 118.36676882 36 122 C36.66 122 37.32 122 38 122 C38.26192642 120.72591782 38.52385284 119.45183563 38.79371643 118.1391449 C39.96244341 112.89443702 41.58181884 107.86043614 43.30053711 102.77368164 C43.62763168 101.79356613 43.95472626 100.81345062 44.29173279 99.80363464 C45.36608425 96.58772457 46.44673126 93.37396729 47.52734375 90.16015625 C48.2800255 87.91025719 49.03226145 85.66020895 49.78407288 83.41001892 C51.76002601 77.49923459 53.74111519 71.5901854 55.72357178 65.68157959 C58.89394389 56.22976127 62.05670527 46.77539449 65.21905708 37.32089043 C66.32023244 34.031243 67.4237228 30.74237936 68.52757263 27.45362854 C69.20845696 25.42100755 69.88929146 23.38836987 70.57006836 21.35571289 C70.87406555 20.45202972 71.17806274 19.54834656 71.49127197 18.61727905 C73.44480116 12.77682285 75.25549807 6.90637772 77 1 C83.27 0.67 89.54 0.34 96 0 C93.9759559 6.85004509 91.83118643 13.64249799 89.56103516 20.41455078 C89.23035034 21.40514496 88.89966553 22.39573914 88.55895996 23.41635132 C87.84434571 25.55640822 87.12903881 27.69623394 86.41310501 29.83584976 C85.26526003 33.26645172 84.1193784 36.69770418 82.97396851 40.12911987 C80.12013668 48.67733602 77.26314906 57.22449662 74.40600586 65.77160645 C71.6152223 74.1205738 68.82592512 82.47003547 66.0390625 90.8203125 C65.65124855 91.98223366 65.2634346 93.14415482 64.86386871 94.34128571 C57.79675686 115.52469157 50.85583839 136.74735978 44 158 C34.1 158 24.2 158 14 158 C1.12955101 117.72794994 -11.6124501 77.42378948 -24 37 C-24.29880066 36.02520691 -24.59760132 35.05041382 -24.90545654 34.04608154 C-28.28049891 23.03382435 -31.64706213 12.01900828 -35 1 C-31.04180613 0.82991075 -27.08342714 0.66456382 -23.125 0.5 C-22.01640625 0.45230469 -20.9078125 0.40460937 -19.765625 0.35546875 C-18.66992188 0.31035156 -17.57421875 0.26523437 -16.4453125 0.21875 C-14.95281982 0.1559082 -14.95281982 0.1559082 -13.43017578 0.09179688 C-8.95279425 -0.02802487 -4.47867589 -0.0175648 0 0 Z " fill="#FBFBFB" transform="translate(504,546)"/>
<path d="M0 0 C12.54 0 25.08 0 38 0 C40.0625 3.83625 42.125 7.6725 44.25 11.625 C52.473599 26.902491 60.70483119 42.17679133 69.1875 57.3125 C69.56237549 57.98297363 69.93725098 58.65344727 70.32348633 59.34423828 C71.90947446 62.3532142 71.90947446 62.3532142 74 65 C74.40089844 64.29842773 74.80179687 63.59685547 75.21484375 62.87402344 C75.78332031 61.87918945 76.35179687 60.88435547 76.9375 59.859375 C77.57776123 58.73885742 78.21802246 57.61833984 78.87768555 56.46386719 C80.30595742 53.96436019 81.73454004 51.46503114 83.16333008 48.96582031 C86.56426584 43.01639753 89.96381475 37.06621207 93.35421753 31.11077881 C94.78716134 28.59393188 96.22130014 26.07776682 97.65551758 23.56164551 C98.3364518 22.36626523 99.01680299 21.17055263 99.6965332 19.9744873 C101.24459939 17.2506965 102.80174956 14.5341505 104.38745117 11.83203125 C106.00312975 9.08526195 106.00312975 9.08526195 107.18481445 6.44921875 C108.28811709 4.2205032 109.14274492 2.65601551 111 1 C114.65644655 0.05145622 118.06764997 0.23843895 121.8125 0.5 C122.79154297 0.53609375 123.77058594 0.5721875 124.77929688 0.609375 C127.19022119 0.70345985 129.59308437 0.83468549 132 1 C112.50918866 35.2490295 112.50918866 35.2490295 104.625 48.3125 C103.99980469 49.38983398 103.37460937 50.46716797 102.73046875 51.57714844 C100.62519332 55.10688662 98.2819691 58.41050814 95.88452148 61.74755859 C82.49892596 81.24144365 80.62135284 97.55495708 81.36914062 120.83129883 C81.5057599 125.79009045 81.51001803 130.75077776 81.53809357 135.71114349 C81.59419277 143.14674779 81.81145766 150.56132447 82 158 C71.11 158 60.22 158 49 158 C49.13535156 150.53052734 49.13535156 150.53052734 49.2734375 142.91015625 C49.29946254 139.69690602 49.32121026 136.48469589 49.328125 133.27148438 C49.33941882 128.2044649 49.3639179 123.14072643 49.48339844 118.07495117 C49.97779973 96.19967225 48.72067371 80.74659256 35.6885376 62.41111755 C33.24682507 58.92451711 31.16341858 55.25997481 29.0625 51.5625 C28.27602521 50.23154042 27.48723618 48.90194345 26.6953125 47.57421875 C22.55822468 40.58512005 18.53693613 33.52821891 14.49023438 26.48657227 C10.56183727 19.6647596 6.58876988 12.87591237 2.43725586 6.18701172 C0 2.21115967 0 2.21115967 0 0 Z " fill="#FBFBFB" transform="translate(326,546)"/>
<path d="M0 0 C14.78614201 0 25.97273674 1.329504 36.8125 11.6875 C43.31341267 21.53173919 44.63188924 32.17524512 42.4921875 43.74609375 C40.7683776 49.62091714 37.98545768 54.11774997 32.76953125 57.40625 C21.55127155 63.38932184 13.35927519 63 0 63 C0 42.21 0 21.42 0 0 Z " fill="#0A0A0A" transform="translate(652,559)"/>
<path d="M0 0 C2.42534287 2.42534287 2.81639725 4.16296304 3.78759766 7.44360352 C4.29790024 9.15030968 4.29790024 9.15030968 4.81851196 10.89149475 C5.18004364 12.12484055 5.54157532 13.35818634 5.9140625 14.62890625 C6.28856537 15.88887924 6.66306824 17.14885223 7.04891968 18.44700623 C7.84118127 21.11319844 8.62928602 23.78056975 9.4140625 26.44897461 C10.422019 29.87621009 11.43671016 33.30140102 12.45405006 36.72586155 C14.13266866 42.37732062 15.80687559 48.03010401 17.47119141 53.68579102 C17.76716217 54.69013687 18.06313293 55.69448273 18.36807251 56.72926331 C19 59 19 59 19 60 C5.8 60 -7.4 60 -21 60 C-17.625 48.75 -17.625 48.75 -16.00708008 44.27490234 C-15.46685966 42.77447891 -15.46685966 42.77447891 -14.91572571 41.2437439 C-14.53748154 40.20166779 -14.15923737 39.15959167 -13.76953125 38.0859375 C-13.37424728 36.99028473 -12.97896332 35.89463196 -12.57170105 34.76577759 C-11.32114735 31.30127104 -10.06688698 27.83812024 -8.8125 24.375 C-7.95873807 22.01180772 -7.10522003 19.64852731 -6.25195312 17.28515625 C-4.17078717 11.5224157 -2.0865846 5.76078061 0 0 Z " fill="#0A0A0A" transform="translate(808,582)"/>
<path d="M0 0 C16.83 0 33.66 0 51 0 C51.495 1.485 51.495 1.485 52 3 C34.84 3 17.68 3 0 3 C0 2.01 0 1.02 0 0 Z " fill="#030303" transform="translate(781,657)"/>
<path d="M0 0 C0.66 0.33 1.32 0.66 2 1 C1.06027344 1.92232422 1.06027344 1.92232422 0.1015625 2.86328125 C-0.71570313 3.67152344 -1.53296875 4.47976563 -2.375 5.3125 C-3.18710937 6.11300781 -3.99921875 6.91351563 -4.8359375 7.73828125 C-7.12604842 10.00009937 -7.12604842 10.00009937 -9 13 C-9.66 12.67 -10.32 12.34 -11 12 C-9.54234835 10.37438849 -8.08385614 8.74953066 -6.625 7.125 C-5.81289063 6.22007812 -5.00078125 5.31515625 -4.1640625 4.3828125 C-2.80923795 2.89103817 -1.42494565 1.42494565 0 0 Z M-13 14 C-12.67 14.66 -12.34 15.32 -12 16 C-12.66 15.67 -13.32 15.34 -14 15 C-13.67 14.67 -13.34 14.34 -13 14 Z M-17 17 C-16.34 17.33 -15.68 17.66 -15 18 C-15.721875 18.845625 -16.44375 19.69125 -17.1875 20.5625 C-19.15212712 22.88031852 -20.80771284 25.25140589 -22.4375 27.8125 C-24.40060642 30.6508768 -24.7730799 30.93577733 -28.3125 31.9375 C-29.199375 31.958125 -30.08625 31.97875 -31 32 C-26.59156563 26.70987876 -21.92440206 21.81191572 -17 17 Z M-33 33 C-32.34 34.32 -31.68 35.64 -31 37 C-32.32 36.34 -33.64 35.68 -35 35 C-34.34 34.34 -33.68 33.68 -33 33 Z M-37 36 C-36.34 36.33 -35.68 36.66 -35 37 C-35.99 37 -36.98 37 -38 37 C-37.67 36.67 -37.34 36.34 -37 36 Z " fill="#171717" transform="translate(494,381)"/>
<path d="M0 0 C0 3 0 3 -1.5 4.6875 C-1.995 5.120625 -2.49 5.55375 -3 6 C-3.66 5.67 -4.32 5.34 -5 5 C-3.35 3.35 -1.7 1.7 0 0 Z M-7 6 C-6.34 6.33 -5.68 6.66 -5 7 C-5.66 8.32 -6.32 9.64 -7 11 C-7.99 11 -8.98 11 -10 11 C-10.33 11.66 -10.66 12.32 -11 13 C-11 10 -11 10 -9 7.8125 C-8.34 7.214375 -7.68 6.61625 -7 6 Z M-14 12 C-13.34 12.33 -12.68 12.66 -12 13 C-12.99 13.99 -13.98 14.98 -15 16 C-15.66 15.67 -16.32 15.34 -17 15 C-16.01 14.01 -15.02 13.02 -14 12 Z M-20 17 C-19.34 17.33 -18.68 17.66 -18 18 C-18.99 18 -19.98 18 -21 18 C-20.67 17.67 -20.34 17.34 -20 17 Z " fill="#111111" transform="translate(446,427)"/>
<path d="M0 0 C0.66 0 1.32 0 2 0 C2.67031719 1.9570868 3.33614683 3.91571113 4 5.875 C4.556875 7.51082031 4.556875 7.51082031 5.125 9.1796875 C6 12 6 12 6 14 C6.99 14.33 7.98 14.66 9 15 C8.01 15.99 7.02 16.98 6 18 C3.98996365 14.98494548 3.00828459 12.42503788 1.875 9 C1.52179687 7.948125 1.16859375 6.89625 0.8046875 5.8125 C0 3 0 3 0 0 Z " fill="#141414" transform="translate(871,670)"/>
<path d="M0 0 C0.66 0.33 1.32 0.66 2 1 C1.01 1.99 0.02 2.98 -1 4 C-0.67 2.68 -0.34 1.36 0 0 Z M-2 4 C-1.03607472 6.99887865 -0.64113609 9.08814875 -2 12 C-4.5625 13.25 -4.5625 13.25 -7 14 C-5.66511872 10.40608886 -4.03977277 7.24509304 -2 4 Z " fill="#121212" transform="translate(453,554)"/>
<path d="M0 0 C-1.625 2 -1.625 2 -4 4 C-7.25 4.25 -7.25 4.25 -10 4 C-10.33 3.01 -10.66 2.02 -11 1 C-7.26562152 0.12132271 -3.83225427 -0.08912219 0 0 Z " fill="#202020" transform="translate(361,451)"/>
<path d="M0 0 C0.99 0 1.98 0 3 0 C5 3 5 3 4.625 6.1875 C4.41875 7.115625 4.2125 8.04375 4 9 C3.34 9 2.68 9 2 9 C1.34 6.03 0.68 3.06 0 0 Z " fill="#101010" transform="translate(538,659)"/>
<path d="M0 0 C0.66 0.33 1.32 0.66 2 1 C0.68 4.96 -0.64 8.92 -2 13 C-2.66 13 -3.32 13 -4 13 C-3.20196357 8.47779355 -2.06091915 4.12183831 0 0 Z " fill="#111111" transform="translate(572,571)"/>
<path d="M0 0 C1.09570312 0.10183594 2.19140625 0.20367188 3.3203125 0.30859375 C4.16335938 0.39238281 5.00640625 0.47617187 5.875 0.5625 C5.875 0.8925 5.875 1.2225 5.875 1.5625 C2.245 1.5625 -1.385 1.5625 -5.125 1.5625 C-5.455 2.8825 -5.785 4.2025 -6.125 5.5625 C-8.125 2.5625 -8.125 2.5625 -8.125 0.5625 C-5.28943413 -0.85528293 -3.1341294 -0.30007622 0 0 Z " fill="#202020" transform="translate(586.125,545.4375)"/>
<path d="M0 0 C0.66 0.33 1.32 0.66 2 1 C0.86695008 4.39914975 -0.12518475 5.05254451 -3 7 C-4.32 6.34 -5.64 5.68 -7 5 C-4.69 3.35 -2.38 1.7 0 0 Z " fill="#0F0F0F" transform="translate(356,495)"/>
<path d="M0 0 C3 1 3 1 5 3 C5.99 3 6.98 3 8 3 C7.01 4.32 6.02 5.64 5 7 C4.01 6.67 3.02 6.34 2 6 C0.8125 2.9375 0.8125 2.9375 0 0 Z " fill="#121212" transform="translate(390,594)"/>
<path d="M0 0 C0 0.66 0 1.32 0 2 C-3 3 -3 3 -7 3 C-7.33 2.34 -7.66 1.68 -8 1 C-8.66 0.67 -9.32 0.34 -10 0 C-6.7169902 -1.6415049 -3.57454967 -0.51888624 0 0 Z " fill="#101010" transform="translate(677,562)"/>
<path d="M0 0 C0.66 0 1.32 0 2 0 C2.66 1.65 3.32 3.3 4 5 C4.66 5 5.32 5 6 5 C6 6.65 6 8.3 6 10 C5.34 10 4.68 10 4 10 C2.68 6.7 1.36 3.4 0 0 Z " fill="#111111" transform="translate(722,568)"/>
<path d="M0 0 C0.66 0.33 1.32 0.66 2 1 C0.68 1.99 -0.64 2.98 -2 4 C-1.34 2.68 -0.68 1.36 0 0 Z M-3 4 C-2.34 4.66 -1.68 5.32 -1 6 C-1.99 6.66 -2.98 7.32 -4 8 C-4 5 -4 5 -3 4 Z " fill="#0F0F0F" transform="translate(508,366)"/>
<path d="M0 0 C0.66 0.33 1.32 0.66 2 1 C1.67 1.66 1.34 2.32 1 3 C1.66 3 2.32 3 3 3 C3 3.66 3 4.32 3 5 C2.34 5 1.68 5 1 5 C0.67 5.99 0.34 6.98 0 8 C-0.66 8 -1.32 8 -2 8 C-1.34 5.36 -0.68 2.72 0 0 Z " fill="#151515" transform="translate(562,658)"/>
<path d="M0 0 C0.66 0 1.32 0 2 0 C2 0.99 2 1.98 2 3 C2.66 3 3.32 3 4 3 C4.33 4.65 4.66 6.3 5 8 C4.01 8 3.02 8 2 8 C1.34 5.36 0.68 2.72 0 0 Z " fill="#141414" transform="translate(865,653)"/>
<path d="M0 0 C0.66 0.33 1.32 0.66 2 1 C0.68 3.64 -0.64 6.28 -2 9 C-2.66 8.34 -3.32 7.68 -4 7 C-3.68134222 3.70720291 -2.45484649 2.13464912 0 0 Z " fill="#161616" transform="translate(223,645)"/>
<path d="M0 0 C0.66 0.33 1.32 0.66 2 1 C1.01 3.31 0.02 5.62 -1 8 C-1.66 7.67 -2.32 7.34 -3 7 C-3 6.34 -3 5.68 -3 5 C-3.66 4.67 -4.32 4.34 -5 4 C-3.35 3.67 -1.7 3.34 0 3 C0 2.01 0 1.02 0 0 Z " fill="#0F0F0F" transform="translate(316,464)"/>
<path d="M0 0 C0.66 0 1.32 0 2 0 C2.625 2.875 2.625 2.875 3 6 C2.34 6.66 1.68 7.32 1 8 C0.26919734 6.02253397 -0.39421747 4.01927511 -1 2 C-0.67 1.34 -0.34 0.68 0 0 Z " fill="#131313" transform="translate(817,614)"/>
<path d="M0 0 C0.66 0.33 1.32 0.66 2 1 C0.515 4.96 0.515 4.96 -1 9 C-1.66 9 -2.32 9 -3 9 C-2.44271087 5.65626525 -1.64826111 2.96687001 0 0 Z " fill="#131313" transform="translate(188,507)"/>
<path d="M0 0 C0.99 0.495 0.99 0.495 2 1 C2 1.99 2 2.98 2 4 C2.66 4 3.32 4 4 4 C4 5.65 4 7.3 4 9 C3.34 9 2.68 9 2 9 C1.34 6.03 0.68 3.06 0 0 Z " fill="#141414" transform="translate(859,634)"/>
<path d="M0 0 C0.66 0.33 1.32 0.66 2 1 C-2.75 4 -2.75 4 -5 4 C-5.33 4.99 -5.66 5.98 -6 7 C-6.66 6.34 -7.32 5.68 -8 5 C-6.71475739 4.13619741 -5.42157581 3.28419631 -4.125 2.4375 C-3.04605469 1.72400391 -3.04605469 1.72400391 -1.9453125 0.99609375 C-1.30335938 0.66738281 -0.66140625 0.33867187 0 0 Z " fill="#020202" transform="translate(301,471)"/>
</svg>
